# Blender v2.79 (sub 0) OBJ File: ''
# www.blender.org
mtllib Octahedron.mtl
o SketchUp_ID3
v 0.001436 0.708538 0.001436
v 0.000000 -0.000000 0.707107
v 0.707107 0.000000 0.000000
v 0.707107 0.000000 0.000000
v -0.707107 0.000000 0.000000
v 0.000000 -0.000000 0.707107
v 0.000000 0.000000 -0.707107
v 0.707107 0.000000 0.000000
v 0.000000 -0.000000 0.707107
v -0.001436 -0.708538 -0.001436
v 0.000000 0.000000 -0.707107
v 0.001436 0.708538 0.001436
v 0.707107 0.000000 0.000000
v -0.707107 0.000000 0.000000
v 0.000000 -0.000000 0.707107
v 0.001436 0.708538 0.001436
v 0.000000 0.000000 -0.707107
v 0.707107 0.000000 0.000000
v -0.001436 -0.708538 -0.001436
v 0.001436 0.708538 0.001436
v 0.000000 0.000000 -0.707107
v -0.707107 0.000000 0.000000
v 0.000000 0.000000 -0.707107
v -0.001436 -0.708538 -0.001436
v -0.707107 0.000000 0.000000
v -0.707107 0.000000 0.000000
v -0.001436 -0.708538 -0.001436
v 0.000000 -0.000000 0.707107
vt 0.366104 0.833558
vt 0.548413 0.667117
vt 0.548413 1.000000
vt 0.000000 0.332883
vt 0.366104 0.000000
vt 0.366104 0.332883
vt 0.000000 0.000000
vt 0.366104 0.166105
vt 0.683373 0.000000
vt 0.683373 0.333558
vt 0.258349 0.666442
vt 0.258349 0.902304
vt 0.000000 0.902302
vt 0.941294 0.902304
vt 0.682945 0.666444
vt 0.941294 0.666442
vt 0.366104 0.500338
vt 0.682945 0.333558
vt 0.682945 0.667117
vt 0.942772 0.235862
vt 0.683373 0.234906
vt 0.942772 0.000000
vt 0.682945 0.500000
vt 1.000000 0.333558
vt 1.000000 0.666442
vt 0.000000 0.499662
vt 0.316841 0.332883
vt 0.316841 0.666442
vn 0.5785 0.5750 0.5785
vn -0.0000 1.0000 0.0000
vn 0.5770 -0.5781 0.5770
vn 0.5777 0.5766 -0.5777
vn -0.5777 0.5766 0.5777
vn 0.5777 -0.5766 -0.5777
vn -0.5770 0.5781 -0.5770
vn -0.5785 -0.5750 -0.5785
vn -0.5777 -0.5766 0.5777
usemtl material
s off
f 1/1/1 2/2/1 3/3/1
f 4/4/2 5/5/2 6/6/2
f 5/5/2 4/4/2 7/7/2
f 8/8/3 9/9/3 10/10/3
f 11/11/4 12/12/4 13/13/4
f 14/14/5 15/15/5 16/16/5
f 17/17/6 18/18/6 19/19/6
f 20/20/7 21/21/7 22/22/7
f 23/23/8 24/24/8 25/25/8
f 26/26/9 27/27/9 28/28/9
